<?xml version="1.0"?><svg version="1.2" baseProfile="tiny-ps" viewBox="0 0 300 300" xmlns="http://www.w3.org/2000/svg" xmlns:xlink="http://www.w3.org/1999/xlink"><title>handl</title><g><g fill="#fffdf3" transform="matrix(.1 0 0 -.1 0 300)"><path d="M0 1500V0h3000v3000H0V1500z"/></g><g fill="#d7d8d3" transform="matrix(.1 0 0 -.1 0 300)"><path d="M0 1500V0h3000v3000H0V1500zm1672 906c215-42 389-142 536-308l72-83 45-90 45-90 26-90 27-90v-310l-22-80c-23-88-83-221-131-290-49-71-136-160-209-215l-69-50-95-45-95-46-89-19-88-20h-213l-74 14c-89 17-192 55-275 102l-63 35-10 19c-5 10-10 30-10 44v25l481 485 481 486h77l20-26 21-27v-50l-435-437c-239-240-435-441-435-447v-11l58-20c31-12 77-27 102-33l45-13 125 1h125l95 31 95 32 64 37c171 102 303 276 357 474l18 64v260l-22 79-23 80-40 75-39 76-53 61c-63 74-126 128-210 178l-62 37-80 26-80 25-131 6-132 5-74-17-75-17-74-35c-226-108-379-294-434-526l-15-63v-239l16-65c19-74 59-171 71-171 4-1 206 200 449 446l440 447 35-7 34-6 19-20 19-19v-59l-484-492-484-491-23-6-23-6-24 11-23 10-45 74c-53 84-92 181-112 280l-15 69v248l15 69c40 192 119 335 256 468 151 145 281 210 514 258 11 2 68 4 127 5l106 1 74-14z"/></g><g fill="#9ea39f" transform="matrix(.1 0 0 -.1 0 300)"><path d="M0 1500V0h3000v3000H0V1500zm1750 890c41-11 116-41 165-64l90-43 62-47c84-64 175-165 233-259l48-77 30-93c38-114 52-196 52-308v-86l-15-88-15-87-29-74c-16-41-48-106-71-145l-42-71-66-70c-122-129-237-203-402-259l-95-32-141-5-141-4-84 17-84 17-71 29c-39 16-95 44-125 62l-54 32-9 26-9 26 7 24 7 24 472 477 472 478 32 6 32 6 31-30 30-30v-56l-287-291c-159-159-355-358-437-442l-150-152 45-20c25-12 77-28 115-37l69-17h105l105 1 78 20 78 21 77 41 78 40 66 55 67 55 46 63c92 121 148 264 161 411l6 72-11 88-12 87-28 79c-81 230-267 405-511 482l-75 23h-150l-150-1-77-26c-97-32-185-82-269-151l-65-54-48-64c-59-78-96-151-126-244l-22-70-5-125-5-125 16-73c14-68 62-192 74-192 3 0 203 200 445 445l439 445h23c13 0 35-5 49-11l25-12 12-29 12-29-9-20c-5-10-226-240-492-509L838 930h-67l-30 38c-17 20-50 72-72 115l-40 78-26 97-26 97v280l27 99c45 172 115 296 236 416 128 129 294 219 470 256l65 13 150-3 150-4 75-22z"/></g><g fill="#596864" transform="matrix(.1 0 0 -.1 0 300)"><path d="M0 1500V0h3000v3000H0V1500zm1698 904c97-20 207-63 296-115l71-42 100-101 100-101 38-65c49-85 91-196 111-292l16-77v-226l-20-94-19-94-40-84c-54-113-90-164-180-256-156-161-330-248-550-277l-94-12-76 7c-42 3-114 15-160 26l-85 19-91 45c-99 49-130 74-140 117l-7 28 420 427c231 236 451 458 490 496l70 67h21c31 0 68-20 81-44l12-23-4-26-3-27-433-440-434-440 38-16c21-9 74-25 118-36l79-20 121 4 121 5 80 26 80 26 65 38 65 38 91 90 91 90 38 68c46 84 80 187 94 290l11 79-10 91-10 92-21 65c-31 94-82 188-145 264l-54 66-73 54c-90 67-154 100-254 128l-78 22h-130l-130 1-55-13c-30-8-101-36-157-63l-101-48-85-81-86-81-39-62c-47-75-77-141-97-216l-15-56-6-100-7-100 12-73 11-74 31-79c28-73 42-93 51-70 2 6 198 206 437 445l433 436h69l24-25 25-24v-65l-482-485c-266-267-487-489-493-493-12-9-57-10-79-2-21 8-100 136-131 211-13 33-34 107-46 164l-21 104 5 115 6 115 24 96 25 95 37 75c140 280 400 465 718 509l62 9 90-5c50-3 123-12 163-20z"/></g><g fill="#023025" transform="matrix(.1 0 0 -.1 0 300)"><path d="M0 1500V0h3000v3000H0V1500zm1650 916c204-33 375-121 517-264l72-72 46-69c59-90 92-164 122-281l25-95v-135l1-135-23-90c-82-329-341-591-668-676l-77-20-102-6-102-6-78 12c-108 17-193 45-296 98l-88 45-14 29c-8 15-15 36-15 47v19l486 491 486 492h30c16 0 38-5 50-11l20-11 14-35 15-35-17-26c-9-15-207-218-440-452l-423-425 26-14c14-7 56-22 92-34l66-20 135-1 135-1 75 23c147 47 260 119 363 233l56 61 39 77c22 42 50 108 62 146l22 70 5 111 6 110-17 84c-48 237-194 428-410 537l-68 34-77 20-76 20-120 1-120 1-70-17-70-17-82-40-82-40-68-58c-37-31-89-84-116-116l-48-60-39-80-39-80-17-70-17-70-1-120v-120l17-63c19-69 56-162 66-162 3-1 202 198 442 442l436 442 39-1 38-1 23-27 23-26v-60l-486-494-487-494-23-5-23-6-24 9-25 10-32 46c-47 68-105 199-126 285l-19 75v310l23 84c47 173 124 302 253 427 83 79 136 117 224 161 133 67 266 100 410 102l80 1 85-14z"/></g></g></svg>