<svg version="1.1" id="Layer_1" xmlns="http://www.w3.org/2000/svg" xmlns:xlink="http://www.w3.org/1999/xlink" x="0px" y="0px"
	 width="100%" viewBox="0 0 1024 1024" enable-background="new 0 0 1024 1024" xml:space="preserve">
<path fill="#000000" opacity="1.000000" stroke="none" 
	d="
M426.598236,717.605835 
	C419.225983,725.094727 412.060516,732.301025 404.979126,739.588989 
	C400.938080,743.747864 401.325195,745.620972 406.592987,748.017273 
	C431.791840,759.480652 458.198547,766.456543 485.668884,769.781311 
	C498.437744,771.326721 511.211548,772.074829 524.025330,771.596130 
	C566.685852,770.002258 606.797974,759.035400 644.049072,738.081421 
	C678.146118,718.901550 706.405823,693.132507 729.049683,661.292908 
	C751.989807,629.036804 767.184937,593.355408 773.532471,554.287537 
	C783.539551,492.695740 774.011658,434.036743 743.355591,379.583527 
	C705.886292,313.028076 648.909912,271.530670 575.262878,252.463623 
	C555.674072,247.392105 535.656433,244.678452 515.504578,244.585922 
	C454.327484,244.305054 398.969604,262.174408 350.764221,300.241608 
	C297.416046,342.369965 266.293396,398.137207 253.675674,464.264801 
	C243.480362,517.696777 250.166519,569.615845 271.632202,619.605469 
	C273.679413,624.372986 274.974945,624.443115 279.544922,619.867676 
	C306.159760,593.221436 332.788116,566.588501 359.339935,539.879517 
	C406.802124,492.136414 454.248138,444.377106 501.630707,396.555023 
	C525.319824,372.646118 548.654846,348.383240 572.529968,324.662903 
	C587.822754,309.469299 612.984070,316.888794 617.764526,337.686462 
	C619.966736,347.267731 616.649292,355.332855 609.851807,362.200958 
	C583.125610,389.204803 556.379517,416.189423 529.743774,443.282410 
	C450.417664,523.970215 370.622833,604.192444 290.680603,684.268982 
	C283.757355,691.203857 275.955719,694.757202 266.024475,693.448120 
	C258.217377,692.419006 252.075317,688.711548 247.953934,682.233032 
	C225.470657,646.890991 209.227325,609.002808 201.728043,567.596008 
	C198.069016,547.392883 196.184158,527.015869 196.000885,506.506927 
	C195.516357,452.285828 209.734100,401.797180 235.865891,354.624390 
	C267.089600,298.259644 311.331757,255.094986 369.047394,226.127731 
	C401.447296,209.866364 435.644287,199.322586 471.657013,194.524429 
	C494.721191,191.451492 517.797363,190.646378 540.916260,192.812347 
	C589.395325,197.354248 634.741821,211.780212 676.465576,237.054138 
	C732.080261,270.742432 773.175171,317.531433 801.122498,376.044220 
	C817.281494,409.876190 826.997620,445.335297 829.518860,482.924683 
	C832.637451,529.419067 827.649353,574.587585 811.306885,618.407104 
	C797.342346,655.850525 777.025757,689.416992 750.696106,719.376038 
	C723.663452,750.135132 692.285645,775.416199 655.191467,793.065125 
	C623.263855,808.255859 589.792603,818.453369 554.518799,822.427368 
	C482.595581,830.530334 415.445892,816.249878 352.963898,779.803406 
	C349.943268,778.041382 346.949829,776.231140 343.901855,774.517761 
	C328.252533,765.721436 326.259308,744.384277 338.901245,731.822510 
	C384.761444,686.253357 430.208313,640.268494 475.911285,594.540588 
	C535.045532,535.374207 594.309509,476.337341 653.425598,417.152863 
	C661.534363,409.034729 670.527832,404.537201 682.157227,407.598724 
	C701.264771,412.628967 707.772217,435.987823 693.881714,449.959320 
	C646.067017,498.053009 598.246948,546.141479 550.327454,594.130676 
	C520.073242,624.428955 489.623932,654.532410 459.292023,684.753296 
	C448.429565,695.575928 437.654938,706.486755 426.598236,717.605835 
z"/>
</svg>